<mxfile host="app.diagrams.net" modified="2024-07-08T09:21:33.335Z" agent="Mozilla/5.0 (Macintosh; Intel Mac OS X 10_15_7) AppleWebKit/605.1.15 (KHTML, like Gecko) Version/17.5 Safari/605.1.15" etag="j5h3bwX-AykJ1jJwkC1x" version="24.6.4" type="device">
  <diagram name="Page-1" id="2HlnLqRuJLAi3u_SVFNl">
    <mxGraphModel dx="710" dy="539" grid="1" gridSize="10" guides="1" tooltips="1" connect="1" arrows="1" fold="1" page="1" pageScale="1" pageWidth="827" pageHeight="1169" math="0" shadow="0">
      <root>
        <mxCell id="0" />
        <mxCell id="1" parent="0" />
        <mxCell id="fxKYLvgK44i0pxtUxIPQ-1" value="" style="rounded=1;whiteSpace=wrap;html=1;" vertex="1" parent="1">
          <mxGeometry x="180" y="350" width="120" height="60" as="geometry" />
        </mxCell>
        <mxCell id="fxKYLvgK44i0pxtUxIPQ-2" value="Devices" style="rounded=1;whiteSpace=wrap;html=1;" vertex="1" parent="1">
          <mxGeometry x="170" y="360" width="120" height="60" as="geometry" />
        </mxCell>
        <mxCell id="fxKYLvgK44i0pxtUxIPQ-3" value="Server" style="rounded=1;whiteSpace=wrap;html=1;" vertex="1" parent="1">
          <mxGeometry x="380" y="360" width="120" height="60" as="geometry" />
        </mxCell>
        <mxCell id="fxKYLvgK44i0pxtUxIPQ-4" value="User" style="rounded=1;whiteSpace=wrap;html=1;" vertex="1" parent="1">
          <mxGeometry x="580" y="360" width="120" height="60" as="geometry" />
        </mxCell>
        <mxCell id="fxKYLvgK44i0pxtUxIPQ-5" value="" style="endArrow=classic;html=1;rounded=0;entryX=0;entryY=0.5;entryDx=0;entryDy=0;exitX=1;exitY=0.5;exitDx=0;exitDy=0;" edge="1" parent="1" source="fxKYLvgK44i0pxtUxIPQ-2" target="fxKYLvgK44i0pxtUxIPQ-3">
          <mxGeometry relative="1" as="geometry">
            <mxPoint x="330" y="460" as="sourcePoint" />
            <mxPoint x="360" y="390" as="targetPoint" />
          </mxGeometry>
        </mxCell>
        <mxCell id="fxKYLvgK44i0pxtUxIPQ-6" value="WS" style="edgeLabel;resizable=0;html=1;;align=center;verticalAlign=middle;" connectable="0" vertex="1" parent="fxKYLvgK44i0pxtUxIPQ-5">
          <mxGeometry relative="1" as="geometry" />
        </mxCell>
        <mxCell id="fxKYLvgK44i0pxtUxIPQ-7" value="" style="endArrow=classic;html=1;rounded=0;exitX=0;exitY=0.5;exitDx=0;exitDy=0;entryX=1;entryY=0.5;entryDx=0;entryDy=0;" edge="1" parent="1" source="fxKYLvgK44i0pxtUxIPQ-4" target="fxKYLvgK44i0pxtUxIPQ-3">
          <mxGeometry relative="1" as="geometry">
            <mxPoint x="380" y="490" as="sourcePoint" />
            <mxPoint x="480" y="490" as="targetPoint" />
          </mxGeometry>
        </mxCell>
        <mxCell id="fxKYLvgK44i0pxtUxIPQ-8" value="Label" style="edgeLabel;resizable=0;html=1;;align=center;verticalAlign=middle;" connectable="0" vertex="1" parent="fxKYLvgK44i0pxtUxIPQ-7">
          <mxGeometry relative="1" as="geometry" />
        </mxCell>
        <mxCell id="fxKYLvgK44i0pxtUxIPQ-9" value="HTTP" style="edgeLabel;html=1;align=center;verticalAlign=middle;resizable=0;points=[];" vertex="1" connectable="0" parent="fxKYLvgK44i0pxtUxIPQ-7">
          <mxGeometry y="3" relative="1" as="geometry">
            <mxPoint y="-3" as="offset" />
          </mxGeometry>
        </mxCell>
      </root>
    </mxGraphModel>
  </diagram>
</mxfile>
